<svg fill="#000000" version="1.1" id="Layer_1" xmlns="http://www.w3.org/2000/svg" xmlns:xlink="http://www.w3.org/1999/xlink" 
	 viewBox="0 0 310 310" xml:space="preserve">
<g id="XMLID_801_">
	<path id="XMLID_802_" d="M72.16,99.73H9.927c-2.762,0-5,2.239-5,5v199.928c0,2.762,2.238,5,5,5H72.16c2.762,0,5-2.238,5-5V104.73
		C77.16,101.969,74.922,99.73,72.16,99.73z M41.043,86.969c-18.43,0-33.405-14.973-33.405-33.405S22.613,20.16,41.043,20.16
		c18.43,0,33.405,14.973,33.405,33.405S59.473,86.969,41.043,86.969z"/>
	<path id="XMLID_803_" d="M236.995,99.73h-44.529c-2.762,0-5,2.239-5,5v199.928c0,2.762,2.238,5,5,5h44.529
		c2.762,0,5-2.238,5-5V104.73C241.995,101.969,239.757,99.73,236.995,99.73z M209.43,291.923h-17.362V186.21
		c0-25.124-19.229-34.418-32.193-34.418c-12.965,0-26.516,9.294-26.516,34.418v105.713H116.02V104.73h17.362v23.721
		c9.007-11.232,23.13-26.16,48.531-26.16c35.439,0,59.077,22.932,59.077,68.855V291.923z"/>
</g>
</svg>